<svg width="12" height="12" viewBox="0 0 12 12" fill="none" xmlns="http://www.w3.org/2000/svg">
<path d="M10.9999 5H3.4099L6.7099 1.71C6.8982 1.5217 7.00399 1.2663 7.00399 1C7.00399 0.733701 6.8982 0.478306 6.7099 0.290002C6.52159 0.101699 6.2662 -0.00408936 5.9999 -0.00408936C5.73359 -0.00408936 5.4782 0.101699 5.2899 0.290002L0.289896 5.29C0.198856 5.38511 0.127491 5.49725 0.0798963 5.62C-0.0201217 5.86346 -0.0201217 6.13654 0.0798963 6.38C0.127491 6.50275 0.198856 6.6149 0.289896 6.71L5.2899 11.71C5.38286 11.8037 5.49346 11.8781 5.61532 11.9289C5.73718 11.9797 5.86788 12.0058 5.9999 12.0058C6.13191 12.0058 6.26261 11.9797 6.38447 11.9289C6.50633 11.8781 6.61693 11.8037 6.7099 11.71C6.80363 11.617 6.87802 11.5064 6.92879 11.3846C6.97956 11.2627 7.00569 11.132 7.00569 11C7.00569 10.868 6.97956 10.7373 6.92879 10.6154C6.87802 10.4936 6.80363 10.383 6.7099 10.29L3.4099 7H10.9999C11.2651 7 11.5195 6.89465 11.707 6.70711C11.8945 6.51957 11.9999 6.26522 11.9999 6C11.9999 5.73479 11.8945 5.48043 11.707 5.2929C11.5195 5.10536 11.2651 5 10.9999 5Z" fill="#7C82A1"/>
</svg>
