<svg width="168" height="62" viewBox="0 0 168 62" fill="none" xmlns="http://www.w3.org/2000/svg">
<path d="M23.8308 14.8761C23.6688 13.3277 22.9737 12.1249 21.7453 11.2675C20.517 10.4101 18.85 9.98141 16.7443 9.98141C15.3135 9.98141 14.1054 10.1734 13.1201 10.5573C12.1347 10.9284 11.3788 11.4466 10.8524 12.1121C10.3395 12.7775 10.083 13.5325 10.083 14.3771C10.056 15.0809 10.2113 15.6951 10.5487 16.2198C10.8997 16.7445 11.3788 17.1987 11.9863 17.5826C12.5937 17.9537 13.2956 18.2801 14.092 18.5616C14.8883 18.8303 15.7387 19.0607 16.6431 19.2526L20.3685 20.0972C22.1773 20.4811 23.8375 20.993 25.3493 21.6328C26.8611 22.2726 28.1704 23.0596 29.2772 23.9938C30.3841 24.928 31.2412 26.0285 31.8486 27.2953C32.4695 28.5622 32.7867 30.0146 32.8002 31.6526C32.7867 34.0584 32.1388 36.1443 30.8565 37.9102C29.5877 39.6633 27.752 41.0262 25.3493 41.9987C22.9602 42.9585 20.0783 43.4384 16.7038 43.4384C13.3563 43.4384 10.4407 42.9521 7.95709 41.9796C5.48695 41.007 3.55673 39.5674 2.16644 37.6607C0.789635 35.7412 0.0674903 33.3674 0 30.5393H8.48352C8.578 31.8574 8.9762 32.9579 9.67809 33.8409C10.3935 34.711 11.3451 35.3701 12.5329 35.8179C13.7343 36.253 15.0908 36.4706 16.6026 36.4706C18.0874 36.4706 19.3764 36.2658 20.4698 35.8563C21.5766 35.4468 22.4337 34.8774 23.0411 34.148C23.6486 33.4186 23.9523 32.5804 23.9523 31.6334C23.9523 30.7505 23.6756 30.0082 23.1221 29.4068C22.5822 28.8054 21.7858 28.2935 20.733 27.8712C19.6936 27.4489 18.4181 27.065 16.9063 26.7195L12.3912 25.6446C8.89521 24.8384 6.13486 23.5779 4.11015 21.8631C2.08545 20.1484 1.07984 17.8386 1.09334 14.9337C1.07984 12.5535 1.748 10.4741 3.0978 8.69535C4.4611 6.91661 6.33058 5.52817 8.70623 4.53002C11.0819 3.53188 13.7815 3.03281 16.8051 3.03281C19.8826 3.03281 22.5687 3.53188 24.8634 4.53002C27.1716 5.52817 28.9668 6.91661 30.2491 8.69535C31.5314 10.4741 32.1928 12.5343 32.2333 14.8761H23.8308Z" fill="#FF4A4A"/>
<path d="M49.9307 23.9554V41.0006H41.3055V1.68919H49.6878V16.7189H50.0522C50.7541 14.9785 51.8879 13.6157 53.4537 12.6304C55.0195 11.6322 56.9835 11.1331 59.3456 11.1331C61.5053 11.1331 63.3883 11.581 64.9945 12.4768C66.6143 13.3598 67.8696 14.633 68.7605 16.2966C69.6648 17.9474 70.1103 19.9245 70.0968 22.2279V41.0006H61.4715V23.6867C61.485 21.8696 60.9991 20.4555 60.0138 19.4446C59.0419 18.4337 57.6786 17.9282 55.9239 17.9282C54.7495 17.9282 53.7102 18.1649 52.8058 18.6384C51.9149 19.1119 51.213 19.8029 50.7001 20.7115C50.2007 21.6072 49.9442 22.6886 49.9307 23.9554Z" fill="#EDC127"/>
<path d="M92.0079 62C88.8629 62 86.1431 61.3666 83.8484 60.0997C81.5672 58.82 79.8057 57.0413 78.5639 54.7635C77.3221 52.4729 76.7012 49.8176 76.7012 46.7975C76.7012 43.7519 77.3221 41.0902 78.5639 38.8124C79.8057 36.5218 81.5672 34.743 83.8484 33.4762C86.1431 32.1965 88.8629 31.5567 92.0079 31.5567C95.153 31.5567 97.8661 32.1965 100.147 33.4762C102.442 34.743 104.21 36.5218 105.452 38.8124C106.694 41.0902 107.315 43.7519 107.315 46.7975C107.315 49.8176 106.694 52.4729 105.452 54.7635C104.21 57.0413 102.442 58.82 100.147 60.0997C97.8661 61.3666 95.153 62 92.0079 62ZM92.0485 55.6656C93.4792 55.6656 94.6738 55.2817 95.6322 54.5139C96.5905 53.7333 97.3127 52.6712 97.7986 51.3276C98.298 49.9839 98.5477 48.4547 98.5477 46.7399C98.5477 45.0252 98.298 43.496 97.7986 42.1523C97.3127 40.8087 96.5905 39.7465 95.6322 38.9659C94.6738 38.1853 93.4792 37.795 92.0485 37.795C90.6042 37.795 89.3893 38.1853 88.404 38.9659C87.4321 39.7465 86.6965 40.8087 86.197 42.1523C85.7111 43.496 85.4681 45.0252 85.4681 46.7399C85.4681 48.4547 85.7111 49.9839 86.197 51.3276C86.6965 52.6712 87.4321 53.7333 88.404 54.5139C89.3893 55.2817 90.6042 55.6656 92.0485 55.6656Z" fill="#25F2FF"/>
<path d="M129.591 31.1728V14.2427H138.217V43.7263H129.936V38.3709H129.612C128.91 40.0985 127.742 41.4869 126.109 42.5362C124.489 43.5856 122.512 44.1102 120.176 44.1102C118.098 44.1102 116.269 43.6623 114.689 42.7666C113.11 41.8708 111.875 40.5975 110.984 38.9468C110.107 37.296 109.661 35.3189 109.648 33.0155V14.2427H118.273V31.5567C118.287 33.297 118.779 34.6727 119.751 35.6836C120.723 36.6945 122.026 37.2 123.659 37.2C124.698 37.2 125.67 36.9761 126.574 36.5282C127.479 36.0675 128.208 35.3893 128.761 34.4935C129.328 33.5977 129.605 32.4908 129.591 31.1728Z" fill="#E10FE6"/>
<path d="M133.944 6.85263V0H168V6.85263H155.305V39.3115H146.639V6.85263H133.944Z" fill="#FBA017"/>
</svg>
